<svg aria-hidden="true" style="position:absolute;width:0;height:0;overflow:hidden" xmlns="http://www.w3.org/2000/svg"><defs>
<symbol id="icon-Logo-4" viewBox="0 0 56 32"><path  d="m20 4 3.6 3.5h-6.8v17h17.8V18l3.7 3.4V4H19.9zm14.5 13.5L24 7.7h10.5v9.8zM31.2 22H19.6V10.6h.8v10.6h10.8v.7zm-8.8 4.8-.5.8-.4-.8H21l.7 1.1v.7h.3v-.7l.6-1.1h-.3zm.5 1.8.1-.4h.8l.1.4h.4l-.8-1.8h-.2l-.7 1.8h.3zm.5-1.4.3.7H23l.3-.7zm1.7.7v.2l.1.4.4.1.5-.1.1.1h.4l-.3-.3.2-.6h-.3v.4l-.4-.5h.1l.2-.2v-.6h-.8l-.1.4v.2l.2.2-.3.3zm.9.4-.3.1h-.3V28l.1-.3.5.5zm-.4-.8-.1-.3v-.2H25.8c.1 0 0 .1 0 .2v.1l-.2.2zm3 1c.2-.1.3-.3.3-.5h-.3l-.2.3h-.6V27c0-.2.2-.1.4-.1h.2l.1.4h.4l-.2-.5a.7.7 0 0 0-.5-.2l-.4.1c-.1.1-.3.2-.3.4l-.1.4V28.1l.3.3.4.1.6-.1zm2-.3v-1l-.3-.4h-.8l-.3.4c-.1.2 0 .3 0 .4v.6l.3.3.4.1h.4l.3-.4zm-.4-1 .1.4v.6l-.4.2c-.2 0-.3 0-.3-.2l-.2-.5c0-.3 0-.4.2-.5l.3-.2c.1 0 .2 0 .3.2z"/></symbol>

<symbol id="icon-Logo-3" viewBox="0 0 56 32"><path  d="M26.3 3.5h-.7a12.2 12.2 0 0 0-.6 0c-2 .1-3.8.6-5.5 1.4l-.3.1v11.6l.6-.2a20.5 20.5 0 0 1 5.7-1V17h-.6a17 17 0 0 0-7.2 2V4.1a15.6 15.6 0 0 1 8-2.2h.2a16.6 16.6 0 0 1 2.7.4v1.5c-.6-.2-1.3-.2-1.9-.3h-.4zM28.9 5h1a16.5 16.5 0 0 0 8-2v14.7A15.6 15.6 0 0 1 27 19.5V4.7a12.2 12.2 0 0 0 2 .3zm7.5.1-.6.2-1.4.5a18 18 0 0 1-5.4.5h-.4v12h.3a12.1 12.1 0 0 0 4.5-.5c1-.2 1.9-.5 2.8-1h.2V5zM18.7 24a.8.8 0 0 0-.5-.1.9.9 0 0 0-.7.2l-.1.3V27l.2.3.3.1h.6a.8.8 0 0 0 .5-.8v-.2h-.5V26.8l-.1.1-.1.1h-.4v-2.5a.3.3 0 0 1 .3-.1.3.3 0 0 1 .2 0v.5h.6v-.2a1 1 0 0 0-.3-.6zM21.8 24a.9.9 0 0 0-1.2 0l-.1.3-.1.4V27l.3.3.2.2a.9.9 0 0 0 1-.2l.1-.3.1-.4v-2.3l-.3-.2zm-.2 2.6a.3.3 0 0 1-.1.3.4.4 0 0 1-.5 0v-.1l-.1-.2v-1.9a.3.3 0 0 1 .1-.2.4.4 0 0 1 .5 0s.1.2 0 .2v2zM25.9 27.5v-3.6h-.5l-.7 1.9-.6-2h-.5v3.7h.5v-2.2l.5 1.6h.3l.5-1.6v2.2h.5zM28.8 24.1l-.3-.2h-1.1v3.6h.5v-1.4h.3l.4-.1c.2 0 .3-.2.3-.3l.1-.3a2.6 2.6 0 0 0 0-1s0-.2-.2-.3zm-.2 1.1v.2l-.2.2h-.5v-1.2h.5l.1.1v.7zM31.3 23.9h-.5l-.7 3.6h.5l.1-.8h.7l.2.8h.5l-.8-3.6zm-.5 2.3L31 25l.3 1.3h-.5zM34.6 26l-.8-2.1h-.5v3.6h.5v-2.2l.8 2.2h.5v-3.6h-.5V26zM37.7 23.9l-.4 1.4L37 24h-.5l.7 2v1.6h.5V26l.7-2.1h-.6zM17.3 28.5h.3v.7h.1v-.7h.3v-.1h-.7v.1zM19.4 28.4l-.3.8h.2V29h.4v.2h.2l-.3-.8h-.2zm0 .5v-.3l.2.3h-.2zM21.5 28.9h.2v.1h-.2a.2.2 0 0 1-.2 0v-.2c0-.2 0-.3.2-.3s.1 0 .1.1h.2c0-.2-.1-.2-.3-.2h-.3a.4.4 0 0 0-.2.4l.1.3a.4.4 0 0 0 .4.1l.3-.1v-.3h-.3v.1zM23.6 28.4h-.2v.8h.6v-.1h-.4v-.7zM25.3 28.4h-.1v.8h.1v-.8zM27 29l-.3-.6h-.1v.8h.1v-.5l.4.5h.1v-.8h-.1v.5zM28.7 28.8h.4v-.1h-.4v-.2h.4v-.1h-.6v.8h.6v-.1h-.4v-.3zM32.5 28.7H32v-.3H32v.8h.1v-.4h.4v.4h.1v-.8h-.1v.3zM34 28.8h.5v-.1H34v-.2h.4v-.1H34v.8h.6v-.1h-.4v-.3zM36.2 28.8c.2 0 .2 0 .2-.2a.2.2 0 0 0 0-.2h-.7v.8h.2V29h.2l.2.3h.2l-.1-.2-.2-.2zm-.2 0v-.3h.2v.2H36zM37.8 28.8h.4v-.1h-.4v-.2h.5v-.1h-.6v.8h.6v-.1h-.5v-.3z"/></symbol>

<symbol id="icon-phone" viewBox="0 0 18 18">
<path d="M13.996 11.1226L12.1579 10.9127C11.7164 10.862 11.2822 11.014 10.971 11.3252L9.63945 12.6568C7.59144 11.6147 5.91251 9.94296 4.87041 7.8877L6.20922 6.54888C6.5204 6.2377 6.67237 5.80349 6.62171 5.36205L6.41185 3.53836C6.325 2.80745 5.70988 2.25745 4.97173 2.25745H3.71976C2.902 2.25745 2.22175 2.93771 2.2724 3.75547C2.65595 9.93572 7.59868 14.8712 13.7717 15.2548C14.5894 15.3054 15.2697 14.6252 15.2697 13.8074V12.5555C15.2769 11.8245 14.7269 11.2094 13.996 11.1226V11.1226Z" />
</symbol>

<symbol id="checked" width="16" height="15" viewBox="0 0 13 10">
<path d="M1.95703 4.75166L1.88825 4.68604L1.81923 4.75141L0.93123 5.59258L0.854858 5.66492L0.930974 5.73753L4.42671 9.07236L4.49574 9.1382L4.56476 9.07236L12.069 1.91352L12.1449 1.84116L12.069 1.76881L11.1873 0.927644L11.1183 0.861826L11.0493 0.927611L4.49577 7.17353L1.95703 4.75166Z" fill="white" stroke="white" stroke-width="0.2"/>
</symbol>

<symbol id="icon-user" viewBox="0 0 18 18">
<path d="M9 9C10.6575 9 12 7.6575 12 6C12 4.3425 10.6575 3 9 3C7.3425 3 6 4.3425 6 6C6 7.6575 7.3425 9 9 9ZM9 10.5C6.9975 10.5 3 11.505 3 13.5V14.25C3 14.6625 3.3375 15 3.75 15H14.25C14.6625 15 15 14.6625 15 14.25V13.5C15 11.505 11.0025 10.5 9 10.5Z"/>
</symbol>

<symbol id="icon-send" viewBox="0 0 24 24">
<path d="M24 0L0 13.5L7.66994 16.3407L19.5 5.25002L10.5017 17.3896L10.509 17.3923L10.5 17.3896V24.0001L14.8013 18.982L20.2501 21.0001L24 0Z" />
</symbol>

<symbol id="icon-mail" viewBox="0 0 18 18">
<path d="M15 3H3C2.175 3 1.5075 3.675 1.5075 4.5L1.5 13.5C1.5 14.325 2.175 15 3 15H15C15.825 15 16.5 14.325 16.5 13.5V4.5C16.5 3.675 15.825 3 15 3ZM14.7 6.1875L9.3975 9.5025C9.1575 9.6525 8.8425 9.6525 8.6025 9.5025L3.3 6.1875C3.1125 6.0675 3 5.865 3 5.6475C3 5.145 3.5475 4.845 3.975 5.1075L9 8.25L14.025 5.1075C14.4525 4.845 15 5.145 15 5.6475C15 5.865 14.8875 6.0675 14.7 6.1875Z" />
</symbol>

<symbol id="icon-Logo-2" viewBox="0 0 57 32"><path  d="m19.4 26.2.2.1-.3.2-.5.1h-.4a1 1 0 0 1-.4-.3l-.2-.3v-.8l.2-.3.4-.2a1.4 1.4 0 0 1 .9 0l.3.2-.1.1H19.1a.8.8 0 0 0-.2-.1 1.1 1.1 0 0 0-.5 0l-.2.2-.2.2v.6a.7.7 0 0 0 .4.4h.5a.7.7 0 0 0 .4-.1zM22.8 25.6l-.1.4-.2.3-.4.2h-.9a1 1 0 0 1-.3-.2.9.9 0 0 1-.2-.3 1 1 0 0 1 0-.8l.2-.3.3-.2h1l.3.2a1 1 0 0 1 .3.7zm-.3 0v-.3a.7.7 0 0 0-.5-.4 1 1 0 0 0-.6 0l-.3.2-.1.2v.6a.6.6 0 0 0 .4.4h.6l.3-.1.1-.3v-.3zM25 26h.1v-.1l.8-1.2H26.3v1.9H26V25l-.8 1.1v.1H25l-.8-1.3v.1c0 .1 0 0 0 0v1.5h-.3v-2h.3v.1L25 26zM27.9 25.9v.7h-.3v-2h.6l.4.1.2.1.2.2v.3a.5.5 0 0 1-.2.4l-.2.1h-.7zm0-.2h.5l.2-.2h.1V25a.6.6 0 0 0-.5-.1H28v.8zM31.8 26.6h-.3l-.3-.5h-1l-.2.4h-.3l.9-1.8h.3l.9 1.9zm-1.5-.7h.9l-.4-.8v-.2.1l-.1.1-.4.8zM33 24.7l1.3 1.5V26c0-.1 0 0 0 0v-1.4h.3v1.9h-.2L33 25v1.5h-.3v-2h.2zM36.7 25.8v.8h-.2v-.8l-.8-1.1H36l.5.8.1.1v-.1l.6-.8h.4l-.9 1.1zM25 21.5h.3c2-.8 3.6-2 4.8-3.6s1.7-3.4 1.7-5.3l-2.2-1.8c.5 2 .2 4-.6 5.9s-2.2 3.5-4 4.8z"/><path  d="M24.2 21.4c2-1.2 3.5-3 4.3-5s1-4 .4-6.1l-3-2.7a11.5 11.5 0 0 1-1.7 13.8zM34.6 14.8c-.5 2-1.8 4-3.6 5.3-.6.4-1.1.8-1.8 1 1.5-.3 3-1 4-1.9s2-2 2.6-3.3l-1.2-1z"/><path  d="M34.1 14.5 32.3 13c0 1.8-.6 3.5-1.6 5s-2.6 2.7-4.4 3.5h1.2c1.7-.6 3.2-1.6 4.3-2.8s2-2.6 2.3-4.2zM24.4 6.5l-2.1-1.9c-2 .7-3.5 1.8-4.7 3.3s-1.8 3.1-1.8 4.9c0 2 .8 3.8 2.2 5.4s3.3 2.6 5.5 3c2-2 3-4.5 3.2-7.2s-.6-5.3-2.3-7.5zM39 14.3c0-2.4-1-4.6-3-6.2a11.3 11.3 0 0 0-10.7-2l13 11.3c.5-1 .7-2 .7-3.1z"/></symbol>

<symbol id="icon-Logo-1" viewBox="0 0 57 32"><path d="M12.9 11.3c-1.3 0-2.3.9-2.3 2 0 1.2 1 2 2.3 2 1.3 0 2.3-.8 2.3-2 0-1.1-1-2-2.3-2zM30 10.6c0-1.6-.7-3.1-2-4.2s-3-1.8-4.7-1.8c-1.8 0-3.5.7-4.8 1.8s-2 2.6-2 4.2v8.7S30 18 30 10.6zM5.9 22.2c0 1 .5 2.1 1.3 2.9s2 1.2 3.3 1.2c1.3 0 2.4-.4 3.3-1.2s1.4-1.8 1.4-3v-6s-9.3 1-9.3 6zm4.6 1-.6-.1a1 1 0 0 1-.6-1.2c0-.2.2-.4.4-.5.1-.2.4-.3.6-.3h.7l.5.5c.1.2.3.3.3.6l-.1.4a1 1 0 0 1-.3.3l-.4.3h-.5zM20 22.6h-1v1h-.4v-2.3H20v.4h-1v.6h.9v.3zm2.2-.1-.1.6-.4.4a1 1 0 0 1-.5.1l-.5-.1c-.2-.1-.2-.2-.3-.4l-.1-.6v-.7a.9.9 0 0 1 1-.5l.4.1.4.4.1.6zm-.5-.1v-.6c0-.2-.3-.1-.5-.1l-.3.1-.2.6c0 .3 0 .5.2.6l.3.2c.2 0 .3 0 .4-.2l.1-.5v-.1zm2 .6v-.2l-.4-.2-.4-.1c-.2-.2-.4-.4-.4-.6l.1-.3.3-.2.5-.1h.4l.3.3.1.4h-.5v-.3H23l-.1.2.1.2.3.1.6.3.2.5c0 .2 0 .3-.2.4a1 1 0 0 1-.6.2h-.5c-.1-.2-.3-.2-.3-.4l-.1-.3h.4c0 .2.2.3.5.3h.2l.1-.2zm2.5-1.3h-.7v1.9h-.4v-2h-.7v-.3h1.8v.4zm1.7.9h-1v.6H28v.4h-1.5v-2.3H28v.4h-1v.5h.9v.4zm1.2.1h-.3v.9h-.5v-2.3h.8c.3 0 .5 0 .7.2s.2.3.2.5l-.1.4-.3.2.5 1h-.5l-.5-.9zm-.3-.3h.3l.3-.1.1-.3v-.2l-.4-.1h-.3v.7zm2.8.4v.8h-.5v-2.3h1l.4.1.3.3v.4l-.1.5a1 1 0 0 1-.7.2h-.4zm0-.4h.7l.1-.3v-.3l-.4-.1h-.4v.7zm3 .2h-1v.6h1.1v.4h-1.5v-2.3h1.5v.4h-1v.5h.9v.4zm2.1-1h-.6v2h-.5v-2h-.7v-.3h1.8v.4zm1.7 1h-1v.6h1.1v.4H37v-2.3h1.5v.4h-1v.5h.9v.4zm1.3.1h-.4v.9h-.5v-2.3h.9c.2 0 .4 0 .6.2s.2.3.2.5l-.1.4-.3.2.5 1H40l-.4-.9zm-.4-.3h.4l.2-.1.1-.3v-.2l-.3-.1h-.4v.7zm2.7.6v-.2l-.4-.2-.4-.1c-.2-.2-.4-.4-.4-.6l.1-.3.3-.2.5-.1h.4l.3.3.1.4H42v-.3h-.6l-.1.2.1.2.3.1.6.3.2.5c0 .2 0 .3-.2.4a1 1 0 0 1-.6.2h-.5a.7.7 0 0 1-.4-.7h.4c0 .2.2.3.5.3h.2l.1-.2z"/></symbol>

<symbol id="icon-Logo" viewBox="0 0 57 32"><path  d="m14.3 23.9.2.5-.1.3-.2.3c-.3.2-.6.3-1 .3h-1.5V22h1.5c.3 0 .6 0 .9.2l.2.3v.8l-.6.3c.3 0 .4.1.6.3zm-1.8-.5h.6l.4-.1.1-.2v-.5a.7.7 0 0 0-.5-.1h-.6v.9zm1 1.2.2-.1V24l-.1-.1a.7.7 0 0 0-.5-.2h-.6v1h.6c.2 0 .4 0 .5-.2zM17.4 25.3l-.9-1.3h-.3v1.3h-.7V22h1.4c.3 0 .6 0 1 .3l.2.6c0 .2 0 .5-.2.7l-.6.4.9 1.3h-.8zm-1.2-1.8h.6c.4 0 .6-.1.6-.5a.5.5 0 0 0-.1-.3.7.7 0 0 0-.5-.2h-.6v1zM21.3 24.6H20l-.3.7H19l1.3-3.3h.8l1.4 3.3h-.8l-.3-.7zm-.2-.5-.5-1.4-.5 1.4h1zM26.3 25.3h-.7L24 23v2.3h-.8V22h.8l1.6 2.2V22h.7v3.3zM30.4 24.5l-.6.6-1 .2h-1.3V22h1.3c.3 0 .7 0 1 .2.2.1.5.3.6.6.2.2.2.5.2.8l-.2.9zm-.8 0 .3-.9c0-.3-.1-.5-.3-.8-.3-.2-.6-.3-1-.2h-.4v2h.5c.3.1.6 0 .9-.2zM21.8 3.6s9.3 3.2 9 7.9v7.8s-9.2-3.2-9-7.8V3.6zM39.2 17.5c1.7-1.1 3.8-1.8 5.9-2V13a12 12 0 0 0-6 4.5z"/><path  d="M38.1 18.2c1.5-2.6 4-4.7 7-5.7v-7S31.8 10 32 16.5v11.2l1.5-.5v-1.1c.4-3.1 2-6 4.5-8z"/><path  d="M36.9 22.4c0-.8.2-1.5.4-2.3a10.4 10.4 0 0 0-2.8 6.8l2.6-1.2c-.3-1.1-.3-2.2-.2-3.3zM37.4 22.4c-.1 1 0 2 .2 3 3.6-2 7.6-5 7.5-8.8v-.3c-2.6.3-5 1.3-6.9 3-.4 1-.7 2-.8 3.1z"/></symbol>

<symbol id="icon-Client-6" viewBox="0 0 59 32"><path  d="M29.7 15.1a1 1 0 0 1-.2-.7v-1c0-.3 0-.5.2-.7s.4-.2.7-.2c.3 0 .6 0 .7.2.2.1.2.4.2.6v.2h-.6v-.6h-.5v.1l-.1.3v1.6h.5l.1-.1v-.5h.6v.2c0 .2 0 .4-.2.6-.1.2-.3.2-.7.2s-.5 0-.7-.2zM32 15.1l-.1-.7v-1c0-.3 0-.6.2-.7s.4-.2.7-.2c.3 0 .6 0 .7.2l.2.7v1c0 .3 0 .5-.2.7s-.4.2-.7.2c-.3 0-.6 0-.7-.2zm1-.2c.1-.1.2-.2.1-.4V13H32.5v2h.5zM34.4 12.5h.7l.4 2 .5-2h.6v2.8h-.4v-2l-.5 2h-.4l-.4-2v2h-.5v-2.8zM37.3 12.5h1c.5 0 .8.3.8.8s-.3.8-.9.8H38v1.2h-.6v-2.8zm.9 1.2a.5.5 0 0 0 .3 0V12.8h-.6v.8h.3zM40 12.5h.6l.7 2.8h-.6l-.1-.6H40l-.1.6h-.6l.7-2.8zm.5 1.8-.2-1.1-.2 1.1h.4zM41.8 12.5h.4L43 14v-1.6h.5v2.8H43l-.8-1.7v1.7h-.5v-2.8zM44.6 14.2l-.6-1.7h.5l.4 1.1.4-1.1h.5l-.6 1.7v1.1h-.6v-1zM30.6 16.5v.2h-.5v1.1H30v-1.1h-.4v-.2h1.1zM32.1 17.8H32l-.2-.3H31l-.1.3H30.6l.6-1.3h.2l.6 1.3zm-1-.5h.6l-.2-.5v-.1l-.1.1-.2.5zM33.2 17.7a.8.8 0 0 0 .3 0v-.4h-.2v-.1h.4v.5a.8.8 0 0 1-.2.1 1.2 1.2 0 0 1-.7 0l-.2-.1a.6.6 0 0 1-.2-.5v-.3l.2-.2.2-.1a1 1 0 0 1 .5 0 .8.8 0 0 1 .3 0v.2h-.1a.6.6 0 0 0-.2-.1.8.8 0 0 0-.4 0l-.2.1v.2c-.1.1-.1.3 0 .4v.2h.2l.3.1zM35 17.7h.7v.1h-.9v-1.3h.2v1.2zM36.4 17.8h-.2v-1.3h.2v1.3zM37.1 16.5l.9 1v-1h.2v1.3H38l-.9-1V18H37v-1.4h.1zM39.7 16.5v.2h-.8v.4h.6v.1H39v.5h.8v.1h-1v-1.3h1zM18.5 8.6l9 2.2v7.7l-9-2.2V8.6zm-.6-.7v8.8L28 19v-8.7L18 7.9z"/><path  d="m23.3 23.2-10-2.5V12l10 2.5v8.7z"/><path  d="m18 8.5 9 2.1-3.8 3.3-8.9-2.2 3.8-3.2zm0-.6-4.8 4 10.1 2.6 4.7-4.1-10-2.5zM24 22.7l4-3.6-4-1v4.6z"/></symbol>

<symbol id="icon-astronaut-1" viewBox="0 0 32 32"><path fill="#2196f3" style="fill:var(--color2, #2196f3)" d="M32 4.5c0-.2-.3-.3-.5-.3l-1.9-.3-.8-1.7c-.2-.4-.8-.4-1 0L27 3.9l-2 .3a.5.5 0 0 0-.2.9L26 6.4l-.3 2c0 .1 0 .3.2.4.2.2.4.2.6 0l1.7-.8 1.7.9a.5.5 0 0 0 .8-.6l-.3-1.9 1.3-1.3c.2-.2.2-.4.2-.6zM29.5 6c-.1 0-.2.2-.1.4l.1 1.1-1-.5a.5.5 0 0 0-.4 0l-1 .5.1-1-.1-.5-.8-.8 1.1-.2c.2 0 .3-.1.4-.3l.5-1 .5 1c0 .2.2.3.4.3l1.1.2-.8.8zM26.1 20.5h-1v1h1v-1zM26.1 22.7h-1v1h1v-1zM27.2 21.6h-1v1h1v-1zM25 21.6h-1v1h1v-1zM22.4 26.4h-1v1h1v-1zM22.4 28.5h-1v1h1v-1zM23.5 27.5h-1.1v1h1v-1zM21.3 27.5h-1v1h1v-1zM16 24.3h-1v1h1v-1zM16 26.4h-1v1h1v-1zM17 25.3h-1v1h1v-1zM15 25.3h-1.1v1h1v-1zM5.9 6.1H4.8v1h1v-1zM5.9 8.3H4.8v1h1v-1zM7 7.2H5.8v1h1v-1zM4.8 7.2h-1v1h1v-1z"/><path fill="#212121" style="fill:var(--color3, #212121)" d="M24.7 14.2c-.3-.4-.7-.7-1.2-.7-.5-.1-1 0-1.3.3l-1.3 1-1.9 1.4-1.3-.6a7 7 0 0 0-2.9-13.2A7 7 0 0 0 9 13H6l-3.2 1.6-2 1a1.8 1.8 0 0 0 1 3.2c.3 0 .6 0 .8-.2L4 18l2.3-1.2h1.3l-5.4 5.4-1.3 1.3a1.7 1.7 0 0 0 0 2.4 1.7 1.7 0 0 0 2.3 0l1.3-1.3 1.8-1.3.9.9-1.8 1.7-1.3 1.4a1.7 1.7 0 0 0 0 2.3 1.7 1.7 0 0 0 2.3 0l3.5-3.4 1-1 5.2-5.7 3.5.5h.2l.1-.1 3.3-2.1 1.3-1.3c.7-.6.8-1.6.2-2.3zM2.1 17.8h-.5a.7.7 0 0 1-.2-1.2l1.3-.7.4 1.3-1 .6zm3.5-1.9-1.5.8-.5-1.2 2-1v1.4zm15.1-6.6c0 1-.2 1.8-.6 2.6l-4.2-2c0-.5-.3-1-.7-1.3l1.4-4.9c2.4.8 4.1 3 4.1 5.6zM9 9.3a5.9 5.9 0 0 1 6.7-5.8L14 8.3a1.9 1.9 0 1 0 0 3.7c.7 0 1.3-.4 1.6-1l3.9 1.8A5.9 5.9 0 0 1 8.9 9.3zm6 .8a.8.8 0 0 1-1.6 0 .8.8 0 0 1 1.6 0zm-12.4 15c-.3.3-.7.3-.9 0a.6.6 0 0 1 0-.8l1-1 .8.9-1 1zM5.7 29c-.3.2-.6.2-.9 0a.6.6 0 0 1 0-.9l1-1 .8 1-1 .9zm3.5-3.5-1.8 1.8-.9-.9 1.8-1.7.1-.2v-.5h-.1l-1.6-1.7h-.1l-.1-.1H6l-1.8 1.4-.9-1 2.4-2.3 4.4 4.3-1 1zm6.8-7a.6.6 0 0 0-.4 0v.1l-4.8 5.2-4.3-4.2 2.8-2.9a.5.5 0 0 0-.4-.9H6.7v-1.6H10a7 7 0 0 0 6.2 2l.1.1 2.5 1 .1.7.2 1-3-.5zm4 .2-.3-1.6 1.5-1 .9 1.2-2 1.4zm3.8-2.9-.9.8-.9-1.2.8-.6c.2-.2.4-.2.6-.2a.7.7 0 0 1 .4 1.2z"/><path fill="#212121" style="fill:var(--color3, #212121)" d="m13.6 18.5-2.1-2a.5.5 0 0 0-.8 0l-2.1 2a.5.5 0 0 0 0 .8l2.1 2.1a.5.5 0 0 0 .8 0l2.1-2.1a.5.5 0 0 0 0-.8zm-2.5 1.8-1.4-1.4 1.4-1.4 1.4 1.4-1.4 1.4zM17.2 5l-.3 1.1s1.7.5 1.7 2.2h1.1c0-2-1.7-3-2.5-3.2zM19.7 9.3h-1v1h1v-1z"/></symbol>

<symbol id="icon-diagram-1" viewBox="0 0 32 32"><path fill="#2196f3" style="fill:var(--color2, #2196f3)" d="M15 15h1v4.8h-1V15zM19.2 17.1h1v2.7h-1V17zM10.7 18.7h1v1h-1v-1zM7.5 18.2h1v1.6h-1v-1.6z"/><path fill="#212121" style="fill:var(--color3, #212121)" d="M1.6 28.3h25.6c.9 0 1.6-.7 1.6-1.6v-2.1c0-1-.7-1.6-1.6-1.6h-.5V9.7l3-2.9a1.6 1.6 0 1 0-.8-.8l-2.2 2.2V7c0-1-.8-1.6-1.6-1.6H3.7c-.9 0-1.6.7-1.6 1.6v16h-.5c-.9 0-1.6.7-1.6 1.6v2c0 1 .7 1.7 1.6 1.7zM30.4 4.8a.5.5 0 1 1 0 1.1.5.5 0 0 1 0-1zM3.2 7c0-.3.2-.6.5-.6h21.4c.2 0 .5.3.5.6v2.2l-1 1V8c0-.3-.3-.5-.6-.5H4.8c-.3 0-.5.2-.5.5v13.4c0 .3.2.5.5.5H24c.3 0 .5-.2.5-.5v-9.7l1-1V23H3.3V7zM8 13.9a1.6 1.6 0 1 0 1.1 2.7l1.9 1 .6-.1 4-4.5 3.8 3 .7-.1 3.4-3.2v8.1H5.3V8.6h18.2v2.6l-3.8 3.6-4-3a.5.5 0 0 0-.6.1l-4 4.5-1.5-.7v-.2c0-.9-.7-1.6-1.6-1.6zm.5 1.6a.5.5 0 1 1-1 0 .5.5 0 0 1 1 0zm3.2 8.5h5.4v.6c0 .3-.3.5-.6.5h-4.2a.5.5 0 0 1-.6-.5V24zm-10.6.6c0-.3.2-.6.5-.6h9v.6c0 .8.8 1.6 1.7 1.6h4.2c1 0 1.6-.8 1.6-1.6V24h9c.4 0 .6.3.6.6v2c0 .4-.2.6-.5.6H1.6a.5.5 0 0 1-.5-.5v-2.1z"/></symbol>

<symbol id="icon-clock-1" viewBox="0 0 32 32"><path fill="#212121" style="fill:var(--color3, #212121)" d="M31.3 15.3a15.3 15.3 0 1 0-19.8 14.6h.4l.2-.4 4-12.3a2 2 0 1 0-1-3.6l-5-5.1a.6.6 0 0 0-1 .9l5.2 5c-.4.9-.2 1.8.5 2.4l-3.7 11.7a14 14 0 1 1 10.6-.4l-.4-1.9a.6.6 0 0 0-1-.3l-3.9 3.4a.6.6 0 0 0 .2 1.1l5 1.6a.6.6 0 0 0 .8-.8l-.4-1.8c5.6-2.4 9.3-8 9.3-14.1zM16 14.7a.6.6 0 1 1 0 1.2.6.6 0 0 1 0-1.2zm2 14.8 2.3-2 .6 3-2.8-1z"/><path fill="#2196f3" style="fill:var(--color2, #2196f3)" d="M15.4 3.2v1.3a.6.6 0 1 0 1.2 0V3.2a.6.6 0 0 0-1.2 0zM3.9 14.7a.6.6 0 0 0 0 1.2h1.3a.6.6 0 1 0 0-1.2H3.9zM28.1 16a.6.6 0 1 0 0-1.3h-1.3a.6.6 0 0 0 0 1.2h1.3z"/></symbol>

<symbol id="icon-antenna-1" viewBox="0 0 72 32"><path fill="#212121" style="fill:var(--color3, #212121)" d="m30.8 22.1-8.5-8.5 1-4.6.7.1a2.2 2.2 0 1 0-2-1.4l-5 .6L9 .2a.5.5 0 0 0-.4-.2c-.1 0-.3 0-.4.2L6.7 1.7c-.2.2-.2.5 0 .7l.8.8A15 15 0 0 0 10.2 21v6.7H3.6a2.7 2.7 0 0 0-2.6 2.7v1c0 .4.2.6.5.6h24.5c.3 0 .6-.2.6-.5v-1.1c0-1.5-1.2-2.7-2.7-2.7h-6.4V25a15 15 0 0 0 10-1.5l1 .9.3.1.4-.1 1.5-1.5c.2-.3.2-.6 0-.8zM23.3 6.2a1 1 0 1 1 .7 1.9 1 1 0 0 1-.7-1.9zM22 9.7l-.6 3-1.1-1.2L22 9.7zm-.6-.9-1.9 2L18 9.2l3.4-.5zm2.6 20c.9 0 1.6.7 1.6 1.6v.5H2.1v-.5c0-.9.8-1.6 1.6-1.6H24zm-7.5-2.1v1h-5.3v-1h5.3zm-5.3-1.1v-4c0-1.3 1.2-2.4 2.7-2.4s2.6 1 2.6 2.3v4.1h-5.3zm6.4-1.7v-2.4c0-1.8-1.7-3.4-3.7-3.4-1.4 0-2.6.7-3.3 1.8-4-4.3-5-10.6-2.3-15.9L27 22.7a13.8 13.8 0 0 1-9.3 1.2zm11.3-.7L7.9 2l.7-.7 8 8 13 13.2-.7.7z"/><path fill="#2196f3" style="fill:var(--color2, #2196f3)" d="M13.9 20.3a1.6 1.6 0 1 0 0 3.2 1.6 1.6 0 1 0 0-3.2zm.3 2-.3.1a.5.5 0 0 1 0-1 .5.5 0 0 1 .3.8z"/></symbol>

<symbol id="icon-linkedin-1" viewBox="0 0 32 32"><path d="M32 32V20.3c0-5.8-1.2-10.2-8-10.2a7 7 0 0 0-6.2 3.4h-.1v-2.9h-6.4V32H18V21.4c0-2.8.6-5.5 4-5.5s3.5 3.2 3.5 5.7V32H32zM.5 10.6h6.7V32H.5V10.6zM3.8 0C1.8 0 0 1.7 0 3.8s1.7 4 3.8 4c2.2 0 3.9-1.8 3.9-4C7.7 1.8 6 0 3.8 0z"/></symbol>

<symbol id="icon-facebook-1" viewBox="0 0 32 32"><path d="M21.3 5.3h3v-5C23.6.1 22 0 20 0c-4.2 0-7.1 2.6-7.1 7.5V12H8.2v5.7H13V32h5.7V17.7h4.5l.7-5.7h-5.2V8c0-1.6.4-2.7 2.7-2.7z"/></symbol>

<symbol id="icon-twitter-1" viewBox="0 0 32 32"><path d="M32 6c-1.2.6-2.5 1-3.8 1.1 1.4-.8 2.4-2 3-3.6-1.4.7-2.8 1.3-4.3 1.6a6.6 6.6 0 0 0-11.2 6A18.6 18.6 0 0 1 2.2 4.2a6.6 6.6 0 0 0 2 8.8c-1 0-2-.4-3-.8 0 3.2 2.4 5.9 5.3 6.5a6.5 6.5 0 0 1-3 0 6.6 6.6 0 0 0 6.2 4.6A13.2 13.2 0 0 1 0 26.1 18.5 18.5 0 0 0 28.7 9.5c1.3-1 2.4-2 3.3-3.4z"/></symbol>

<symbol id="icon-instagram-2" viewBox="0 0 32 32"><path d="M32 9.4c-.1-1.7-.4-2.9-.8-3.9s-1-2-1.8-2.8A7.9 7.9 0 0 0 26.5.8c-1-.4-2.1-.6-3.8-.7A109.5 109.5 0 0 0 5.6.8c-1 .4-2 1-2.9 1.9C2 3.5 1.3 4.5 1 5.5.5 6.5.2 7.7.2 9.4a109.5 109.5 0 0 0 .7 17c.4 1.2 1 2.1 1.8 3 .8.7 1.8 1.4 2.9 1.8 1 .4 2.2.6 3.9.7a117.2 117.2 0 0 0 17-.7 8.2 8.2 0 0 0 4.7-4.7c.4-1 .7-2.2.8-3.9V9.4zm-3 13c0 1.6-.2 2.5-.5 3a5.3 5.3 0 0 1-3 3c-.6.3-1.4.6-3 .6a112.7 112.7 0 0 1-15.9-.5 5 5 0 0 1-1.8-1.2 5 5 0 0 1-1.2-1.9c-.2-.5-.5-1.4-.5-3a112.7 112.7 0 0 1 .5-15.8c.3-.7.7-1.3 1.2-1.9a5 5 0 0 1 1.8-1.1c.6-.3 1.5-.5 3-.6a112.7 112.7 0 0 1 15.9.6 5 5 0 0 1 1.8 1.1 5 5 0 0 1 1.2 1.9c.3.5.5 1.4.6 3a112.7 112.7 0 0 1 0 12.9z"/><path d="M16 7.8a8.2 8.2 0 1 0 0 16.4 8.2 8.2 0 0 0 0-16.4zm0 13.5a5.3 5.3 0 1 1 0-10.6 5.3 5.3 0 0 1 0 10.6zM26.5 7.5a2 2 0 1 1-3.8 0 2 2 0 0 1 3.8 0z"/></symbol>

<symbol id="icon-close" viewBox="0 0 32 32">
<path d="M26.667 7.303l-1.97-1.97-7.808 7.808-7.808-7.808-1.97 1.97 7.808 7.808-7.808 7.808 1.97 1.97 7.808-7.808 7.808 7.808 1.97-1.97-7.808-7.808 7.808-7.808z"></path>
</symbol>

<symbol id="icon-smartphone" viewBox="0 0 20 32"><path fill="#757575" style="fill:var(--color5, #757575)" d="M17 0H3a3 3 0 0 0-3 3v26a3 3 0 0 0 3 3h14a3 3 0 0 0 3-3V3a3 3 0 0 0-3-3zM3 2h14c.6 0 1 .4 1 1v21H2V3c0-.6.4-1 1-1zm14 28H3a1 1 0 0 1-1-1v-3h16v3c0 .6-.4 1-1 1z"/><path fill="#757575" style="fill:var(--color5, #757575)" d="M4.7 27.5c.4.3.4 1 0 1.3s-1 .4-1.4 0c-.4-.4-.4-1 0-1.3s1-.4 1.4 0z"/></symbol>

<symbol id="icon-envelope" viewBox="0 0 43 32"><path fill="#757575" style="fill:var(--color5, #757575)" d="M38.7 0H4a4 4 0 0 0-4 4v24a4 4 0 0 0 4 4h34.7a4 4 0 0 0 4-4V4a4 4 0 0 0-4-4zm0 2.7h.5L21.3 18.3 3.5 2.8l.5-.1h34.7zm0 26.6H4c-.7 0-1.3-.6-1.3-1.3V5.6L20.5 21c.2.2.5.3.8.3s.7 0 1-.3L40 5.6V28c0 .7-.6 1.3-1.3 1.3z"/></symbol>

<symbol id="icon-facebook" viewBox="0 0 32 32"><path d="M19 6h5V0h-5a7 7 0 0 0-7 7v3H8v6h4v16h6V16h5l1-6h-6V7c0-.5.5-1 1-1z"/></symbol>

<symbol id="icon-instagram" viewBox="0 0 32 32"><path d="M16 2.9h6.5c1.5.1 2.4.4 3 .6a5 5 0 0 1 1.8 1.2c.5.6.9 1.1 1.2 1.9.2.5.4 1.4.5 3a112.7 112.7 0 0 1-.5 15.8 5 5 0 0 1-1.2 1.9c-.6.5-1.1.9-1.9 1.2-.5.2-1.4.4-3 .5a112.7 112.7 0 0 1-15.8-.5 5 5 0 0 1-1.9-1.2 5 5 0 0 1-1.2-1.9c-.2-.5-.4-1.4-.5-3a112.7 112.7 0 0 1 .5-15.8 5 5 0 0 1 1.2-1.9c.6-.5 1.1-.9 1.9-1.2C7 3.3 8 3 9.6 3l6.4-.1zM16 0H9.4C7.7.3 6.5.5 5.5.9s-2 1-2.8 1.9c-1 .9-1.5 1.8-1.9 2.8-.4 1-.6 2.2-.7 3.9a117.6 117.6 0 0 0 .7 17c.5 1.1 1 2 1.9 3 .9.8 1.8 1.4 2.8 1.8 1 .4 2.2.6 3.9.7a117.2 117.2 0 0 0 17-.7c1.1-.4 2-1 2.9-1.9s1.4-1.8 1.8-2.8c.4-1 .7-2.2.8-3.9a117.2 117.2 0 0 0-.8-17A7.8 7.8 0 0 0 26.4.8c-1-.5-2.1-.7-3.8-.8L16 0z"/><path d="M16 7.8a8.2 8.2 0 1 0 0 16.4 8.2 8.2 0 0 0 0-16.4zm0 13.5a5.3 5.3 0 1 1 0-10.6 5.3 5.3 0 0 1 0 10.6zM26.5 7.5a2 2 0 1 1-3.9 0 2 2 0 0 1 3.9 0z"/></symbol>

<symbol id="icon-twitter" viewBox="0 0 32 32"><path d="M32 7a13 13 0 0 1-3.8 1.1 6.6 6.6 0 0 0 3-3.6c-1.4.7-2.8 1.3-4.3 1.6a6.6 6.6 0 0 0-11.1 6A18.6 18.6 0 0 1 2.2 5a6.6 6.6 0 0 0 2 8.9c-1 0-2-.4-3-.9v.1c0 3.2 2.4 5.9 5.4 6.5a6.6 6.6 0 0 1-3 0 6.6 6.6 0 0 0 6.1 4.6A13.2 13.2 0 0 1 0 27.1a18.6 18.6 0 0 0 28.7-16.6C30 9.5 31.1 8.4 32 7z"/></symbol>
</defs></svg>

